<svg width="62" height="62" viewBox="0 0 62 62" fill="none" xmlns="http://www.w3.org/2000/svg">
<path d="M23.175 0C21.012 0 19.0035 0.7725 17.613 2.163C16.2225 3.5535 15.45 5.562 15.45 7.725C15.45 9.888 16.8405 11.433 17.613 13.287C17.8447 13.7505 17.8447 14.523 17.8447 15.45H0V61.8H17.8447C17.8447 60.873 17.7675 60.1005 17.613 59.637C16.8405 57.783 15.45 56.238 15.45 54.075C15.45 51.912 16.2225 49.9035 17.613 48.513C19.0035 47.1225 21.012 46.35 23.175 46.35C25.338 46.35 27.3465 47.1225 28.737 48.513C30.1275 49.9035 30.9 51.912 30.9 54.075C30.9 56.238 29.5095 57.783 28.737 59.637C28.5052 60.1005 28.5053 60.873 28.5053 61.8H46.35V43.9552C47.277 43.9552 48.0495 44.0325 48.513 44.187C50.367 44.9595 51.912 46.35 54.075 46.35C56.238 46.35 58.2465 45.5775 59.637 44.187C61.0275 42.7965 61.8 40.788 61.8 38.625C61.8 36.462 61.0275 34.4535 59.637 33.063C58.2465 31.6725 56.238 30.9 54.075 30.9C51.912 30.9 50.367 32.2905 48.513 33.063C48.0495 33.2948 47.277 33.2947 46.35 33.2947V15.45H28.5053C28.5053 14.523 28.5825 13.7505 28.737 13.287C29.5095 11.433 30.9 9.888 30.9 7.725C30.9 5.562 30.1275 3.5535 28.737 2.163C27.3465 0.7725 25.338 0 23.175 0Z" fill="#FF0000"/>
</svg>
